<svg height="512pt" viewBox="-68 0 512 512" width="512pt" xmlns="http://www.w3.org/2000/svg"><path d="m366.933594 512c4.710937 0 8.53125-3.820312 8.53125-8.535156v-494.929688c0-4.714844-3.820313-8.535156-8.53125-8.535156-4.714844 0-8.535156 3.820312-8.535156 8.535156v34.132813h-34.132813v-34.132813c0-4.714844-3.820313-8.535156-8.53125-8.535156-4.714844 0-8.535156 3.820312-8.535156 8.535156v8.53125h-238.933594v-8.53125c0-4.714844-3.820313-8.535156-8.53125-8.535156-4.714844 0-8.535156 3.820312-8.535156 8.535156v34.132813h-34.132813v-34.132813c0-4.714844-3.820312-8.535156-8.53125-8.535156-4.714844 0-8.535156 3.820312-8.535156 8.535156v494.929688c0 4.714844 3.820312 8.535156 8.535156 8.535156 4.710938 0 8.53125-3.820312 8.53125-8.535156v-34.132813h34.132813v34.132813c0 4.714844 3.820312 8.535156 8.535156 8.535156 4.710937 0 8.53125-3.820312 8.53125-8.535156v-8.53125h238.933594v8.53125c0 4.714844 3.820312 8.535156 8.535156 8.535156 4.710937 0 8.53125-3.820312 8.53125-8.535156v-34.132813h34.132813v34.132813c0 4.714844 3.820312 8.535156 8.535156 8.535156zm-315.734375-315.734375h-34.132813v-34.132813h34.132813zm0 17.066406v34.132813h-34.132813v-34.132813zm0 51.203125v34.132813h-34.132813v-34.132813zm0 51.199219v34.132813h-34.132813v-34.132813zm0-179.199219v8.53125h-34.132813v-34.132812h34.132813zm-34.132813 230.398438h34.132813v34.132812h-34.132813zm51.199219-221.867188h238.933594v221.867188h-238.933594zm256 119.46875h34.132813v34.132813h-34.132813zm0-17.070312v-34.132813h34.132813v34.132813zm0-51.199219v-34.132813h34.132813v34.132813zm0 119.46875h34.132813v34.132813h-34.132813zm34.132813-170.667969h-34.132813v-34.132812h34.132813zm-34.132813 230.398438v-8.53125h34.132813v34.132812h-34.132813zm34.132813-315.730469v34.132813h-34.132813v-34.132813zm-51.199219-25.601563v93.867188h-238.933594v-93.867188zm-256 25.601563v34.132813h-34.132813v-34.132813zm-34.132813 392.53125v-34.132813h34.132813v34.132813zm51.199219 25.601563v-93.867188h238.933594v93.867188zm256-25.601563v-34.132813h34.132813v34.132813zm0 0"/><path d="m187.734375 162.132812c-51.84375 0-93.867187 42.027344-93.867187 93.867188s42.023437 93.867188 93.867187 93.867188c51.839844 0 93.867187-42.027344 93.867187-93.867188-.0625-51.816406-42.050781-93.804688-93.867187-93.867188zm76.296875 85.332032h-21.460938c-.613281-19.941406-5.796874-39.472656-15.15625-57.09375 20.402344 12.316406 33.929688 33.414062 36.617188 57.09375zm-84.832031-65.917969v65.917969h-29.234375c1.929687-33.816406 15.15625-58.546875 29.234375-65.917969zm0 82.988281v65.917969c-14.078125-7.371094-27.304688-32.101563-29.234375-65.917969zm17.066406 65.917969v-65.917969h29.234375c-1.925781 33.816406-15.152344 58.546875-29.234375 65.917969zm0-82.988281v-65.917969c14.082031 7.371094 27.308594 32.101563 29.234375 65.917969zm-48.210937-57.09375c-9.359376 17.621094-14.542969 37.152344-15.15625 57.09375h-21.460938c2.683594-23.679688 16.210938-44.777344 36.617188-57.09375zm-36.617188 74.164062h21.460938c.613281 19.941406 5.796874 39.472656 15.15625 57.09375-20.40625-12.316406-33.933594-33.414062-36.617188-57.09375zm115.976562 57.09375c9.359376-17.621094 14.542969-37.152344 15.15625-57.09375h21.460938c-2.6875 23.679688-16.214844 44.777344-36.617188 57.09375zm0 0"/></svg>